<svg xmlns="http://www.w3.org/2000/svg" xmlns:xlink="http://www.w3.org/1999/xlink" width="500" zoomAndPan="magnify" viewBox="0 0 375 374.999991" height="500" preserveAspectRatio="xMidYMid meet" version="1.0">
<defs>
    <g/>
    <clipPath id="id1">
        <path d="M 142.722656 163.753906 L 231.957031 163.753906 L 231.957031 211.003906 L 142.722656 211.003906 Z M 142.722656 163.753906 " clip-rule="nonzero"/>
    </clipPath>
</defs>
<g fill="#000000" fill-opacity="1">
    <g transform="translate(165.099999, 200.999987)">
        <g>
            <path d="M 22.417969 -25 L 22.417969 -26.214844 L 1.253906 -26.214844 L 1.253906 -25 L 11.09375 -25 L 11.09375 0 L 12.539062 0 L 12.539062 -25 Z M 22.417969 -25 "/>
        </g>
    </g>
</g>
<g fill="#000000" fill-opacity="1">
    <g transform="translate(183.839918, 200.999987)">
        <g>
            <path d="M 8.132812 -13.488281 L 21.390625 -26.214844 L 19.605469 -26.214844 L 5.128906 -12.273438 L 5.128906 -26.214844 L 3.683594 -26.214844 L 3.683594 0 L 5.128906 0 L 5.128906 -10.636719 L 7.027344 -12.539062 L 18.960938 0 L 21.050781 0 Z M 8.132812 -13.488281 "/>
        </g>
    </g>
</g>
<g clip-path="url(#id1)">
    <path stroke-linecap="butt" transform="matrix(0.74735, 0, 0, 0.746298, 142.722432, 163.753436)" fill="none" stroke-linejoin="miter" d="M 0.000300157 0.000629511 L 119.401275 0.000629511 L 119.401275 63.313138 L 0.000300157 63.313138 L 0.000300157 0.000629511 " stroke="#000000" stroke-width="2" stroke-opacity="1" stroke-miterlimit="4"/>
</g>
</svg>
